<?xml version="1.0" encoding="iso-8859-1"?>
<!-- Generator: Adobe Illustrator 18.0.0, SVG Export Plug-In . SVG Version: 6.00 Build 0)  -->
<!DOCTYPE svg PUBLIC "-//W3C//DTD SVG 1.1//EN" "http://www.w3.org/Graphics/SVG/1.1/DTD/svg11.dtd">
<svg version="1.1" id="Capa_1" xmlns="http://www.w3.org/2000/svg" xmlns:xlink="http://www.w3.org/1999/xlink" x="0px" y="0px" viewBox="0 0 403.625 403.625" xml:space="preserve">
<path d="M361.813,64.99H181.079l-7.299-14.063c-6.726-15.066-21.682-24.768-38.181-24.768H41.813C18.72,26.16,0,44.879,0,67.973
	v107.535v90.656v74.383c0,20.391,16.528,36.918,36.918,36.918h329.789c20.389,0,36.918-16.527,36.918-36.918v-74.383v-90.656
	v-68.705C403.625,83.711,384.905,64.99,361.813,64.99z M135.477,68.16c0.321,0.715,0.663,1.42,1.024,2.115l7.299,14.064
	c7.224,13.916,21.598,22.65,37.278,22.65l180.546,0.002v31.598H42l0-70.43H135.477z"></path>
<g>
</g>
<g>
</g>
<g>
</g>
<g>
</g>
<g>
</g>
<g>
</g>
<g>
</g>
<g>
</g>
<g>
</g>
<g>
</g>
<g>
</g>
<g>
</g>
<g>
</g>
<g>
</g>
<g>
</g>
</svg>
