<?xml version="1.0" encoding="iso-8859-1"?>
<!-- Generator: Adobe Illustrator 19.0.0, SVG Export Plug-In . SVG Version: 6.00 Build 0)  -->
<svg version="1.1" id="Layer_1" xmlns="http://www.w3.org/2000/svg" xmlns:xlink="http://www.w3.org/1999/xlink" x="0px" y="0px" viewBox="0 0 488.6 488.6" xml:space="preserve">
<g>
	<g>
		<path d="M244.4,327.2c-6.3,0-11.4,5.1-11.4,11.4v149.7h12.8h10V338.6C255.8,332.3,250.7,327.2,244.4,327.2z"></path>
	</g>
</g>
<g>
	<g>
		<path d="M474.1,204.1l-45.5-7.7c-4.4-17.1-11.2-33.5-20.4-49.1l26.7-37.5c4.9-7,4.2-16.4-1.9-22.5l-16.2-16l-16.1-16.1
			c-6.1-5.5-15.5-6.2-22.4-1.4l-37.5,26.8c-15.5-9.1-32-16-49.1-20.3L284,14.8c-1.5-8.4-8.7-14.5-17.1-14.5h-22.7h-22.7
			c-8.4,0-15.7,6.1-17.1,14.5l-7.7,45.5c-17.4,4.4-34.3,11.4-50.1,21.1L109.4,55c-7-4.9-16.4-4.2-22.5,1.9L70.8,73L54.7,89.1
			c-6,6-6.8,15.5-1.9,22.5l26.9,37.9c-9.1,15.5-15.7,32.3-20,49.1l-45.2,7.1C6.1,207.2,0,214.4,0,222.8v22.7l0.1,22.8
			c0,8.4,6.1,15.7,14.5,17.1l45.8,7.7c4.5,17,11.4,33.4,20.7,48.8l-26.4,37.2c-4.9,7-4.2,16.4,1.9,22.5l16.1,16.1l16.1,16.1
			c6,5.9,15.5,6.8,22.5,1.9l37.9-26.9c3.5,2.1,7.1,4,10.7,5.8c1,0.5,2,1,3,1.4c3,1.4,6.1,2.8,9.1,4.1c0.7,0.3,1.4,0.6,2.1,0.9
			c3.7,1.5,7.5,2.9,11.3,4.1c0.1,0,0.2,0.1,0.4,0.1c3.8,1.3,7.7,2.4,11.6,3.4c2.5,0.6,5,1.2,7.5,1.7v-82.8
			c0-14.8-6.7-28.7-17.9-38.5c-19-16.6-31-40.9-31-68c0-32.9,17.7-61.7,44-77.5c1.9-1.1,4.3,0.3,4.3,2.5v51.7
			c0,15.4,12.6,28,28.1,28h23.5c15.5,0,28.1-12.6,28.1-28v-54.4c0-2.1,2.3-3.5,4.2-2.6c29.1,15,49.1,45.3,49.1,80.3
			c0,28.5-13.2,53.9-33.9,70.4c-12.3,9.9-19.7,24.6-19.7,40.3v78.5c3.2-0.7,6.4-1.4,9.6-2.3c3.6-1,7.2-2.1,10.8-3.2
			c1.1-0.4,2.1-0.7,3.2-1.1c2.4-0.8,4.8-1.8,7.2-2.7c1.8-0.7,3.7-1.5,5.5-2.3c1.2-0.5,2.4-1.1,3.6-1.7c2.5-1.2,5-2.3,7.5-3.6
			c3.3-1.7,6.6-3.4,9.8-5.3l37.5,26.7c7,4.9,16.4,4.2,22.5-1.9l16.1-16.1l16.1-16.1c6-6,6.8-15.5,1.9-22.5l-26.7-37.5
			c9.1-15.5,16-32,20.3-49.1l45.5-7.7c8.4-1.5,14.5-8.7,14.5-17.2v-22.7v-22.7C488.6,212.8,482.5,205.5,474.1,204.1z"></path>
	</g>
</g>
<g>
</g>
<g>
</g>
<g>
</g>
<g>
</g>
<g>
</g>
<g>
</g>
<g>
</g>
<g>
</g>
<g>
</g>
<g>
</g>
<g>
</g>
<g>
</g>
<g>
</g>
<g>
</g>
<g>
</g>
</svg>
