<?xml version="1.0" encoding="iso-8859-1"?>
<!-- Generator: Adobe Illustrator 19.1.0, SVG Export Plug-In . SVG Version: 6.00 Build 0)  -->
<svg version="1.1" id="Capa_1" xmlns="http://www.w3.org/2000/svg" xmlns:xlink="http://www.w3.org/1999/xlink" x="0px" y="0px" viewBox="0 0 482.2 482.2" xml:space="preserve">
<g>
	<g>
		<path d="M432.6,205.5c-5-27.4-15.7-52.7-30.9-74.8l29.6-40.1l-11.9-11.9l-16.1-16.1l-11.9-11.9l-40,29.5
			c-22.1-15.2-47.5-26-74.9-31.1l-7.3-49h-16.8h-22.8h-16.8l-7.4,49.1c-27.4,5.1-52.8,15.9-74.9,31.1l-40-29.5L78.7,62.6L62.5,78.8
			L50.6,90.7l29.6,40.1c-15.1,22.1-25.9,47.4-30.9,74.8L0,212.9v16.8v22.8v16.8l49.5,7.5c5.1,27.2,15.8,52.4,31,74.4l-29.8,40.4
			l11.9,11.9l16.1,16.1l11.9,11.9l40.5-29.9c21.9,15,47.1,25.7,74.3,30.7l7.5,49.8h16.8h22.8h16.8l7.5-49.8
			c27.2-5,52.3-15.7,74.3-30.7l40.5,29.9l11.9-11.9l16.1-16.1l11.9-11.9l-29.8-40.4c15.1-22,25.9-47.2,31-74.4l49.5-7.5v-16.8v-22.8
			v-16.8L432.6,205.5z M241,395.1c-85,0-154-68.9-154-154c0-85,68.9-154,154-154c85,0,154,68.9,154,154
			C395,326.1,326,395.1,241,395.1z"></path>
		<path d="M325.9,286.8c-26.3-6.7-47.6-21.7-47.6-21.7l-16.7,52.7l-3.1,9.9v-0.1l-2.7,8.4l-8.8-24.9c22.2-31-5.9-29.8-5.9-29.8
			s-28.1-1.2-5.9,29.8l-8.9,25.1l-2.7-8.5l-19.8-62.6c0,0-21.4,15-47.6,21.7c-13.1,3.3-17.9,14.5-19.3,24.9
			c23.6,32.4,61.6,52.7,103.9,52.7c9.7,0,19.4-1.1,29-3.3c30.7-7.1,57.2-24.7,75.5-50C343.6,300.9,338.8,290.1,325.9,286.8z"></path>
		<path d="M196.9,230.2c2.3,14.7,13.6,33.4,32.2,39.9c7.6,2.7,16,2.7,23.6,0c18.3-6.6,30-25.2,32.3-39.9c2.5-0.2,5.7-3.7,9.2-16
			c4.8-16.9-0.3-19.4-4.6-19c0.8-2.3,1.4-4.6,1.9-6.9c7.3-43.8-14.3-45.3-14.3-45.3s-3.6-6.9-13-12.1c-6.3-3.7-15.1-6.6-26.7-5.6
			c-3.7,0.2-7.3,0.9-10.6,2l0,0c-4.3,1.4-8.2,3.5-11.7,6c-4.3,2.7-8.4,6.1-12,9.9c-5.7,5.8-10.8,13.4-13,22.8
			c-1.8,7-1.4,14.4,0.1,22.3l0,0c0.4,2.3,1,4.6,1.9,6.9c-4.3-0.4-9.4,2.1-4.6,19C191.2,226.5,194.5,230,196.9,230.2z"></path>
	</g>
</g>
<g>
</g>
<g>
</g>
<g>
</g>
<g>
</g>
<g>
</g>
<g>
</g>
<g>
</g>
<g>
</g>
<g>
</g>
<g>
</g>
<g>
</g>
<g>
</g>
<g>
</g>
<g>
</g>
<g>
</g>
</svg>
