<?xml version="1.0" encoding="iso-8859-1"?>
<!-- Generator: Adobe Illustrator 19.1.0, SVG Export Plug-In . SVG Version: 6.00 Build 0)  -->
<svg version="1.1" id="Capa_1" xmlns="http://www.w3.org/2000/svg" xmlns:xlink="http://www.w3.org/1999/xlink" x="0px" y="0px" viewBox="0 0 489.9 489.9" xml:space="preserve">
<g>
	<g>
		<path d="M350.4,261.613L350.4,261.613c0.2,0,0.3,0,0.4,0c0.2,0,0.3,0,0.4,0l0,0c75.3-0.8,64.3-101.3,64.3-101.3
			c-3.1-67.2-59.3-66.6-64.8-66.4c-5.5-0.2-61.7-0.8-64.8,66.4C286,160.313,275.1,260.813,350.4,261.613z"></path>
		<path d="M454.1,293.613c-34-13-54.4-26.3-54.4-26.3l-26.2,83l-3.6,11.3l-11.8-33.3c27-37.7-2-39.5-7.1-39.5l0,0h-0.1h-0.1h-0.1
			h-0.1l0,0c-5,0-34.1,1.8-7.1,39.5l-11.8,33.3l-3.6-11.3l-26.2-83c0,0-10.5,6.9-29.1,15.6c11.3,8.7,19,20.3,23.5,35.1
			c5.5,18.2,5.7,39.6,6,66.7c0,3.5,0.1,7.2,0.1,11c0,0.1,0,0.2,0,0.3h48.2h0.3h139C489.2,338.113,491.6,307.213,454.1,293.613z"></path>
		<path d="M138.7,261.613L138.7,261.613c0.2,0,0.3,0,0.4,0c0.2,0,0.3,0,0.4,0l0,0c75.3-0.8,64.3-101.3,64.3-101.3
			c-3.1-67.2-59.3-66.6-64.8-66.4c-5.5-0.2-61.7-0.8-64.8,66.4C74.4,160.313,63.5,260.813,138.7,261.613z"></path>
		<path d="M242.4,293.613c-34-13-54.4-26.3-54.4-26.3l-26.2,83l-3.6,11.3l-11.8-33.3c27-37.7-2-39.5-7.1-39.5l0,0h-0.1h-0.1H139
			h-0.1l0,0c-5,0-34.1,1.8-7.1,39.5l-11.8,33.3l-3.6-11.3l-26.2-83c0,0-20.4,13.3-54.4,26.3c-37.4,13.6-35,44.5-35.8,102.3h139h0.3
			h139C277.6,338.113,279.9,307.213,242.4,293.613z"></path>
	</g>
</g>
<g>
</g>
<g>
</g>
<g>
</g>
<g>
</g>
<g>
</g>
<g>
</g>
<g>
</g>
<g>
</g>
<g>
</g>
<g>
</g>
<g>
</g>
<g>
</g>
<g>
</g>
<g>
</g>
<g>
</g>
</svg>
