<?xml version="1.0" encoding="iso-8859-1"?>
<!-- Generator: Adobe Illustrator 19.0.0, SVG Export Plug-In . SVG Version: 6.00 Build 0)  -->
<svg version="1.1" id="Layer_1" xmlns="http://www.w3.org/2000/svg" xmlns:xlink="http://www.w3.org/1999/xlink" x="0px" y="0px"
	 viewBox="0 0 483.85 483.85" style="enable-background:new 0 0 483.85 483.85;" xml:space="preserve">
<g>
	<g>
		<path d="M471.325,211.856l-56.9-56.9c-23.4-23.4-9.1-48.1,16.4-49.6c42-2.6,65.6-47.4,31.3-84.7c-37.3-34.2-81.9-10.7-84.5,31.2
			c-1.6,25.5-26.5,39.9-49.8,16.6l-55.7-55.7c-16.7-16.7-43.8-16.7-60.5,0l-56.4,56.4c-23.4,23.4-48.2,8.9-49.8-16.6
			c-2.6-42-47.6-65.9-84.9-31.6c-34.4,37.4-10.5,82.4,31.5,85c25.5,1.6,40,26.5,16.7,49.9l-56.2,56.1c-16.7,16.7-16.7,43.8,0,60.5
			l55.7,55.7c23.4,23.3,9.5,47.6-16,49.2c-42,2.6-65.5,47.3-31.2,84.6c37.3,34.3,81.8,10.9,84.4-31.1c1.6-25.5,26-39.5,49.4-16.2
			l56.2,56.2c17,17,44.8,17,61.8,0.1l39.4-39.4l16.9-16.9c22.1-23.1,7.8-47.4-17.4-49c-42-2.6-65.8-47.6-31.5-84.9
			c37.3-34.3,82.3-10.4,84.9,31.6c1.6,25.2,25.8,39.4,48.9,17.3l15.3-15.3l41.2-41.2c0.1-0.1,0.1-0.1,0.2-0.2l0.6-0.6
			C488.025,255.656,488.025,228.556,471.325,211.856z"/>
	</g>
</g>
<g>
</g>
<g>
</g>
<g>
</g>
<g>
</g>
<g>
</g>
<g>
</g>
<g>
</g>
<g>
</g>
<g>
</g>
<g>
</g>
<g>
</g>
<g>
</g>
<g>
</g>
<g>
</g>
<g>
</g>
</svg>
