<?xml version="1.0" encoding="iso-8859-1"?>
<!-- Generator: Adobe Illustrator 16.0.0, SVG Export Plug-In . SVG Version: 6.00 Build 0)  -->
<!DOCTYPE svg PUBLIC "-//W3C//DTD SVG 1.1//EN" "http://www.w3.org/Graphics/SVG/1.1/DTD/svg11.dtd">
<svg version="1.1" id="Capa_1" xmlns="http://www.w3.org/2000/svg" xmlns:xlink="http://www.w3.org/1999/xlink" x="0px" y="0px"
	 width="95.824px" height="95.824px" viewBox="0 0 95.824 95.824" style="enable-background:new 0 0 95.824 95.824;"
	 xml:space="preserve">
<g>
	<g>
		<path d="M23.681,66.137H2c-1.104,0-2,0.896-2,2v21.682c0,1.104,0.896,2,2,2h21.681c1.104,0,2-0.896,2-2V68.137
			C25.681,67.032,24.785,66.137,23.681,66.137z"/>
		<path d="M58.41,66.137H36.728c-1.104,0-2,0.896-2,2v21.682c0,1.104,0.896,2,2,2h21.681c1.104,0,2-0.896,2-2V68.137
			C60.41,67.032,59.514,66.137,58.41,66.137z"/>
		<path d="M93.824,66.137H72.143c-1.104,0-2,0.896-2,2v21.682c0,1.104,0.896,2,2,2h21.682c1.104,0,2-0.896,2-2V68.137
			C95.824,67.032,94.93,66.137,93.824,66.137z"/>
		<path d="M37.072,29.687h21.68c1.104,0,2-0.896,2-2V6.006c0-1.104-0.896-2-2-2h-21.68c-1.104,0-2,0.896-2,2v21.681
			C35.072,28.792,35.968,29.687,37.072,29.687z"/>
		<path d="M9.513,59.209h4.103c1.104,0,2-0.896,2-2v-8.441h28.245v8.465c0,1.104,0.896,2,2,2h4.103c1.104,0,2-0.896,2-2v-8.465
			h28.245v8.449c0,1.104,0.896,2,2,2h4.104c1.104,0,2-0.896,2-2V42.663c0-1.104-0.896-2-2-2h-34.35v-2.775c0-1.104-0.896-2-2-2
			H45.86c-1.104,0-2,0.896-2,2v2.775H9.513c-1.104,0-2,0.896-2,2v14.545C7.513,58.312,8.409,59.209,9.513,59.209z"/>
	</g>
</g>
<g>
</g>
<g>
</g>
<g>
</g>
<g>
</g>
<g>
</g>
<g>
</g>
<g>
</g>
<g>
</g>
<g>
</g>
<g>
</g>
<g>
</g>
<g>
</g>
<g>
</g>
<g>
</g>
<g>
</g>
</svg>
